<?xml version="1.0" ?><!DOCTYPE svg  PUBLIC '-//W3C//DTD SVG 1.1//EN'  'http://www.w3.org/Graphics/SVG/1.1/DTD/svg11.dtd'><svg height="43.3492mm" style="shape-rendering:geometricPrecision; text-rendering:geometricPrecision; image-rendering:optimizeQuality; fill-rule:evenodd; clip-rule:evenodd" version="1.1" viewBox="0 0 4335 4335" width="43.3492mm" xml:space="preserve" xmlns="http://www.w3.org/2000/svg" xmlns:xlink="http://www.w3.org/1999/xlink"><defs><style type="text/css">
   <![CDATA[
    .fil1 {fill:#EBECEC}
    .fil0 {fill:#EF7F1A}
    .fil2 {fill:#2B2A29;fill-rule:nonzero}
   ]]>
  </style></defs><g id="Layer_x0020_1"><path class="fil0" d="M2178 108c786,0 1422,637 1422,1422 0,24 -1,48 -2,71l0 0c0,0 18,409 -354,1196 -314,663 -874,1248 -1043,1416 0,0 -25,15 -25,15 0,0 -25,-15 -25,-15 -169,-168 -729,-753 -1043,-1416 -373,-787 -354,-1196 -354,-1196l2 -1c-1,-23 -2,-47 -2,-71 0,-786 637,-1422 1422,-1422l2 1z"/><circle class="fil1" cx="2176" cy="1501" r="1024"/><polygon class="fil2" points="2353,884 2176,1357 2170,1357 1997,884 1722,1042 2050,1432 2046,1438 1567,1342 1567,1654 2053,1565 2053,1571 1722,1958 1988,2119 2167,1642 2173,1639 2350,2119 2625,1958 2288,1577 2291,1568 2786,1654 2786,1342 2294,1441 2291,1432 2625,1039 "/></g></svg>