<?xml version="1.0" ?>
<!DOCTYPE svg  PUBLIC '-//W3C//DTD SVG 1.1//EN'  'http://www.w3.org/Graphics/SVG/1.1/DTD/svg11.dtd'>
<svg enable-background="new 0 0 24 24" height="24px" id="Layer_1" version="1.1" viewBox="0 0 24 24" width="24px" xml:space="preserve" xmlns="http://www.w3.org/2000/svg" xmlns:xlink="http://www.w3.org/1999/xlink"><path id="svg_1" d="m16.99469,20.06521l-2.17716,-1.11905l2.17772,-1.11905c0.52988,-0.27175 0.71168,-0.87492 0.40517,-1.3469c-0.30595,-0.47198 -0.98382,-0.63326 -1.5137,-0.36102l-2.17772,1.11856l0,-2.23711c0,-0.54448 -0.49662,-0.98638 -1.10854,-0.98638s-1.10854,0.4419 -1.10854,0.98638l0,2.23711l-2.17716,-1.11856c-0.53043,-0.27224 -1.2083,-0.11048 -1.51426,0.36102s-0.12471,1.07516 0.40572,1.3474l2.17716,1.11856l-2.17661,1.11856c-0.53043,0.27224 -0.71223,0.87541 -0.40628,1.34739c0.30596,0.47149 0.98438,0.63326 1.51426,0.36102l2.17716,-1.11806l0,2.23662c0,0.54449 0.49662,0.98638 1.10854,0.98638s1.10854,-0.4419 1.10854,-0.98638l0,-2.23662l2.17716,1.11856c0.53043,0.27224 1.20886,0.11097 1.51426,-0.36102c0.30651,-0.47198 0.12471,-1.07565 -0.40572,-1.34739z" fill="#d60404"/></svg>